<?xml version="1.0" standalone="no"?>
<!DOCTYPE svg PUBLIC "-//W3C//DTD SVG 20010904//EN"
 "http://www.w3.org/TR/2001/REC-SVG-20010904/DTD/svg10.dtd">
<svg version="1.0" xmlns="http://www.w3.org/2000/svg"
 width="400.000000pt" height="200.000000pt" viewBox="0 0 500.000000 500.000000"
 preserveAspectRatio="xMidYMid meet">

<g transform="translate(0.000000,500.000000) scale(0.100000,-0.100000)"
fill="#000000" stroke="none">
<path d="M2416 3607 c-7 -22 -3 -41 14 -77 l22 -47 -21 -48 c-22 -50 -27 -100
-12 -109 5 -4 7 3 4 14 -3 11 6 39 21 64 31 53 33 104 7 138 -11 13 -21 40
-23 59 l-4 34 -8 -28z"/>
<path d="M2510 3512 c0 -11 5 -32 12 -46 9 -21 8 -34 -5 -67 -11 -28 -13 -47
-7 -58 9 -14 9 -14 10 1 0 9 10 33 21 53 l22 36 -27 52 c-17 34 -26 44 -26 29z"/>
<path d="M2340 3445 c-1 -5 -2 -34 -4 -63 -4 -64 7 -75 23 -24 10 31 10 42 -3
67 -9 17 -16 26 -16 20z"/>
<path d="M2153 3208 c8 -93 42 -172 105 -239 l53 -58 -83 -3 c-83 -3 -83 -3
-57 -21 61 -41 304 -62 431 -36 62 12 128 38 128 51 0 4 -36 8 -80 8 l-80 0
48 48 c45 44 91 128 106 195 7 30 16 33 49 16 30 -16 37 -28 37 -66 0 -45 -44
-93 -96 -103 -35 -7 -36 -8 -9 -9 61 -2 135 70 135 132 0 37 -40 77 -79 77
-28 0 -29 2 -24 35 l6 35 -298 0 -298 0 6 -62z"/>
<path d="M1290 2960 c0 -6 133 -10 380 -10 247 0 380 4 380 10 0 6 -133 10
-380 10 -247 0 -380 -4 -380 -10z"/>
<path d="M2940 2960 c0 -6 135 -10 385 -10 250 0 385 4 385 10 0 6 -135 10
-385 10 -250 0 -385 -4 -385 -10z"/>
<path d="M1290 2905 c0 -13 49 -15 380 -15 331 0 380 2 380 15 0 13 -49 15
-380 15 -331 0 -380 -2 -380 -15z"/>
<path d="M2940 2905 c0 -13 49 -15 385 -15 336 0 385 2 385 15 0 13 -49 15
-385 15 -336 0 -385 -2 -385 -15z"/>
<path d="M1355 2665 c-117 -41 -169 -221 -105 -358 33 -69 83 -100 171 -105
60 -4 74 -1 113 22 31 18 51 39 66 71 29 60 22 75 -34 75 -41 0 -46 -3 -63
-37 -22 -46 -58 -62 -101 -44 -16 7 -35 24 -42 39 -30 66 -20 203 17 245 22
23 85 23 106 -1 9 -10 20 -33 23 -50 l7 -32 51 6 c28 4 53 8 55 10 2 2 -1 22
-8 44 -32 106 -141 155 -256 115z"/>
<path d="M1819 2657 c-65 -35 -101 -98 -107 -190 -7 -115 25 -195 98 -245 30
-21 45 -23 106 -20 58 3 77 8 106 30 104 79 115 285 22 388 -57 63 -147 78
-225 37z m126 -73 c30 -12 48 -64 48 -144 0 -86 -15 -127 -54 -149 -62 -35
-119 33 -119 142 0 121 48 180 125 151z"/>
<path d="M2210 2435 l0 -235 55 0 55 0 0 95 0 95 90 0 90 0 0 40 0 40 -90 0
-90 0 0 55 0 54 113 3 112 3 3 43 3 42 -170 0 -171 0 0 -235z"/>
<path d="M2610 2435 l0 -235 55 0 55 0 0 95 0 95 90 0 90 0 0 40 0 40 -90 0
-90 0 0 55 0 55 115 0 115 0 0 45 0 45 -170 0 -170 0 0 -235z"/>
<path d="M3020 2435 l0 -235 165 0 165 0 0 45 0 44 -112 3 -113 3 0 50 0 50
88 3 87 3 0 39 0 39 -87 3 -88 3 -3 48 -3 47 115 0 116 0 0 45 0 45 -165 0
-165 0 0 -235z"/>
<path d="M3450 2435 l0 -235 165 0 165 0 0 45 0 44 -112 3 -113 3 0 50 0 50
88 3 87 3 0 39 0 39 -87 3 -88 3 -3 48 -3 47 115 0 116 0 0 45 0 45 -165 0
-165 0 0 -235z"/>
<path d="M1993 2055 c-34 -15 -47 -42 -41 -91 3 -30 34 -51 103 -71 20 -6 30
-15 30 -28 0 -27 -59 -33 -86 -10 -12 12 -27 15 -44 11 -21 -5 -24 -9 -15 -26
18 -33 52 -50 103 -50 40 0 53 5 78 29 56 56 29 117 -61 141 -50 13 -64 28
-48 47 14 17 48 16 68 -2 16 -14 60 -10 60 6 0 16 -42 47 -72 53 -39 8 -37 8
-75 -9z"/>
<path d="M2603 2056 c-47 -21 -68 -60 -68 -125 1 -91 42 -141 118 -141 64 0
107 55 107 135 0 106 -74 167 -157 131z m71 -49 c27 -20 34 -108 12 -142 -20
-30 -61 -33 -76 -6 -15 30 -12 113 6 139 17 25 33 28 58 9z"/>
<path d="M2240 1925 l0 -135 30 0 c30 0 30 1 30 55 l0 55 40 0 40 0 0 -55 0
-55 35 0 35 0 0 135 0 135 -35 0 -35 0 0 -50 0 -50 -40 0 -40 0 0 50 c0 49 -1
50 -30 50 l-30 0 0 -135z"/>
<path d="M2850 1925 l0 -135 30 0 c29 0 30 1 30 49 l0 48 53 6 c39 5 58 13 75
32 29 35 29 79 -3 110 -22 22 -32 25 -105 25 l-80 0 0 -135z m124 85 c49 -18
26 -70 -31 -70 -31 0 -33 2 -33 33 0 49 13 57 64 37z"/>
<path d="M1290 1955 c0 -13 35 -15 277 -13 210 2 277 6 281 16 3 9 -57 12
-277 12 -244 0 -281 -2 -281 -15z"/>
<path d="M3152 1958 c4 -10 71 -14 281 -16 242 -2 277 0 277 13 0 13 -37 15
-281 15 -220 0 -280 -3 -277 -12z"/>
<path d="M1290 1900 c0 -6 100 -10 280 -10 180 0 280 4 280 10 0 6 -100 10
-280 10 -180 0 -280 -4 -280 -10z"/>
<path d="M3150 1900 c0 -6 100 -10 280 -10 180 0 280 4 280 10 0 6 -100 10
-280 10 -180 0 -280 -4 -280 -10z"/>
<path d="M1884 1622 c-57 -38 -33 -162 32 -162 24 0 71 37 60 48 -4 3 -12 -1
-19 -10 -34 -43 -87 -16 -87 45 0 66 53 100 84 55 9 -12 19 -19 22 -15 4 4 -1
16 -11 27 -18 20 -60 26 -81 12z"/>
<path d="M2060 1606 c-20 -53 -42 -138 -36 -143 3 -3 8 6 12 21 5 22 12 26 40
26 28 0 36 -5 44 -25 5 -14 14 -25 19 -25 13 0 -42 163 -57 168 -7 2 -16 -8
-22 -22z m30 -18 c0 -7 3 -23 6 -35 5 -19 2 -23 -19 -23 -24 0 -25 1 -14 35
10 34 27 48 27 23z"/>
<path d="M2190 1545 c0 -50 4 -85 10 -85 6 0 10 18 10 40 0 39 1 40 35 40 19
0 35 5 35 10 0 6 -16 10 -35 10 -32 0 -35 2 -35 29 0 28 3 30 43 34 40 3 40 4
-10 5 l-53 2 0 -85z"/>
<path d="M2330 1545 l0 -85 55 0 c30 0 55 5 55 10 0 6 -20 10 -45 10 -43 0
-45 1 -45 30 0 28 3 30 35 30 19 0 35 5 35 10 0 6 -16 10 -35 10 -32 0 -35 2
-35 29 0 28 2 30 48 34 46 3 46 3 -10 5 l-58 2 0 -85z"/>
<path d="M2493 1623 c27 -4 27 -5 27 -84 0 -46 4 -79 10 -79 6 0 10 33 10 79
0 79 0 80 28 84 15 2 -2 4 -38 4 -36 0 -53 -2 -37 -4z"/>
<path d="M2630 1545 l0 -85 55 0 c30 0 55 5 55 10 0 6 -20 10 -45 10 -43 0
-45 1 -45 30 0 28 3 30 35 30 19 0 35 5 35 10 0 6 -16 10 -35 10 -32 0 -35 2
-35 29 0 28 2 30 48 34 46 3 46 3 -10 5 l-58 2 0 -85z"/>
<path d="M2790 1545 c0 -50 4 -85 10 -85 6 0 10 18 10 40 0 35 3 40 23 40 19
0 28 -9 40 -40 8 -22 20 -40 25 -40 6 0 4 17 -5 39 -14 36 -14 41 1 56 36 37
6 75 -60 75 l-44 0 0 -85z m86 61 c26 -20 8 -50 -35 -54 -30 -3 -31 -2 -31 32
0 31 3 36 23 36 13 0 32 -6 43 -14z"/>
<path d="M2960 1545 c0 -50 4 -85 10 -85 6 0 10 35 10 85 0 50 -4 85 -10 85
-6 0 -10 -35 -10 -85z"/>
<path d="M3070 1606 c-20 -53 -42 -138 -36 -143 3 -3 8 6 12 21 5 22 12 26 40
26 28 0 36 -5 44 -25 5 -14 14 -25 19 -25 13 0 -42 163 -57 168 -7 2 -16 -8
-22 -22z m30 -18 c0 -7 3 -23 6 -35 5 -19 2 -23 -19 -23 -24 0 -25 1 -14 35
10 34 27 48 27 23z"/>
</g>
</svg>
